<svg width="450" height="450" viewBox="0 0 450 450" fill="none" xmlns="http://www.w3.org/2000/svg">
    <g clip-path="url(#clip0_1_19)">
        <path d="M214.464 0.0325455C195.89 0.837446 177.59 3.89886 159.854 9.17026C139.982 15.0791 120.975 23.7283 103.48 34.8201C92.2281 41.9525 81.3991 50.2574 71.7097 59.1765L70.9283 59.9023L76.4777 65.4249C79.5338 68.4631 82.041 70.9476 82.055 70.9522C82.0689 70.9522 82.3806 70.6731 82.7527 70.3334C100.471 54.1563 120.557 41.2732 142.573 31.9634C164.501 22.6907 187.973 17.2146 211.743 15.8235C212.599 15.7723 213.603 15.7165 213.976 15.7025C214.348 15.6886 214.738 15.6653 214.85 15.6513L215.045 15.6281V7.8117V-2.27559e-05L214.92 0.00928245C214.845 0.0139351 214.645 0.0232403 214.464 0.0325455Z" fill="#CB242E" />
        <path d="M233.513 7.8117V15.6327L233.62 15.6513C233.675 15.6606 234.266 15.6932 234.931 15.7258C235.596 15.7537 236.801 15.8188 237.606 15.87C269.428 17.8706 300.319 27.0874 328.011 42.8412C341.593 50.5645 354.172 59.7208 365.801 70.3381C366.168 70.6777 366.484 70.9522 366.498 70.9522C366.512 70.9476 369.024 68.4631 372.08 65.4249L377.634 59.9023L376.848 59.1765C370.773 53.584 364 48.0288 357.27 43.125C344.575 33.8663 331.23 26.1057 316.893 19.6479C303.39 13.5623 289.104 8.77014 274.587 5.46214C261.864 2.56356 248.616 0.735089 235.885 0.120945C235.08 0.0790715 234.215 0.0371981 233.968 0.0185877L233.513 -0.00932797V7.8117Z" fill="#D00183" />
        <path d="M385.203 77.2193C382.505 79.9271 380.016 82.4256 379.672 82.7745L379.049 83.4119L379.997 84.4541C391.259 96.8114 401.069 110.602 409.098 125.364C411.559 129.887 414.052 134.921 416.145 139.578C425.937 161.39 431.914 184.62 433.854 208.437C434.036 210.67 434.236 213.783 434.301 215.369C434.315 215.741 434.338 216.132 434.352 216.239L434.375 216.439H442.19H450.005L449.977 216.007C449.963 215.774 449.921 214.918 449.879 214.113C449.158 199.011 446.744 183.336 442.85 168.448C440.99 161.311 438.576 153.68 436.008 146.79C431.975 135.968 427.212 125.662 421.555 115.524C414.15 102.25 405.214 89.5022 395.232 77.9777C393.45 75.9213 390.24 72.3481 390.143 72.3108C390.124 72.3062 387.901 74.5162 385.203 77.2193Z" fill="#70336E" />
        <path d="M433.626 233.435C433.626 233.854 433.398 237.744 433.277 239.446C430.938 271.731 421.155 303.006 404.679 330.893C397.381 343.251 388.515 355.231 379.025 365.569L378.309 366.351L383.854 371.906L389.403 377.461L389.715 377.126C392.301 374.339 395.776 370.343 398.441 367.091C410.005 352.975 419.881 337.384 427.658 320.983C439.739 295.51 446.883 268.302 448.884 240.191C449.028 238.125 449.256 234.063 449.256 233.477V233.328H441.441H433.626V233.435Z" fill="#23538E" />
        <path d="M77.9615 384.426C74.9193 387.464 72.4261 389.963 72.4261 389.977C72.4261 390.014 73.3843 390.893 74.9845 392.336C86.8229 402.99 99.9359 412.463 113.826 420.396C120.868 424.42 128.474 428.226 135.828 431.413C154.835 439.648 174.665 445.189 195.136 447.976C201.411 448.832 208.101 449.451 214.162 449.74C214.966 449.781 215.822 449.823 216.06 449.837L216.487 449.861V442.044C216.487 434.633 216.483 434.228 216.408 434.228C216.236 434.228 213.627 434.088 212.534 434.018C188.959 432.562 165.687 427.086 143.945 417.883C123.348 409.164 104.308 397.235 87.5206 382.514C86.5066 381.625 84.5948 379.913 83.8133 379.192L83.5016 378.904L77.9615 384.426Z" fill="#2C7F9D" />
        <path d="M10.1831 234.819C5.8837 234.816 2.35401 234.82 2.34414 234.83C2.31782 234.856 2.37361 236.156 2.48524 238.307C3.32243 254.212 5.89649 270.182 10.1088 285.613C12.2429 293.439 14.9296 301.508 17.8763 308.962C25.4929 328.224 35.5965 346.165 48.1017 362.611C51.9335 367.653 56.2258 372.821 60.3077 377.311C60.8471 377.909 61.4227 378.544 61.5806 378.722L61.8668 379.041L67.3938 373.514C72.6346 368.273 72.9175 367.984 72.8649 367.931C72.7432 367.809 70.9966 365.865 70.273 365.043C54.633 347.344 42.0493 327.015 33.183 305.134C24.7836 284.404 19.7561 262.506 18.2946 240.226C18.2059 238.881 18.0647 236.318 18.0221 235.256L18.0057 234.832L10.1831 234.819Z" fill="#309993" />
        <path d="M66.4342 76.5355C63.3961 73.4933 60.8976 71 60.8837 71C60.8464 71 59.9671 71.9582 58.5248 73.5584C47.8703 85.3968 38.3976 98.5098 30.4649 112.4C26.4404 119.442 22.6346 127.048 19.4476 134.402C11.2125 153.408 5.67121 173.238 2.8843 193.71C2.02823 199.985 1.40943 206.674 1.12097 212.736C1.07909 213.54 1.03722 214.396 1.02326 214.633L1 215.061H8.81637C16.228 215.061 16.6327 215.057 16.6327 214.982C16.6327 214.81 16.7723 212.201 16.8421 211.107C18.2984 187.533 23.7745 164.261 32.9773 142.519C41.6963 121.922 53.6256 102.882 68.3464 86.0946C69.2351 85.0805 70.9472 83.1687 71.6684 82.3872L71.9569 82.0756L66.4342 76.5355Z" fill="#91BC2E" />
        <path d="M364.498 379.709C347.966 394.797 329.401 407.005 309.102 416.138C299.487 420.465 289.267 424.155 279.192 426.937C275.08 428.077 271.586 428.938 267.47 429.831C256.538 432.204 244.49 433.795 233.652 434.298C233.331 434.311 232.889 434.335 232.666 434.349L232.257 434.377V442.165V449.954H232.596C233.475 449.954 237.746 449.702 240.56 449.484C262.943 447.758 284.955 442.691 305.822 434.46C331.806 424.211 355.469 409.346 376.067 390.33L376.318 390.098L370.769 384.575L365.214 379.057L364.498 379.709Z" fill="#4185D2" />
    </g>
    <defs>
        <clipPath id="clip0_1_19">
            <rect width="450" height="450" fill="white" />
        </clipPath>
    </defs>
</svg>
