<svg width="9299" height="2622" viewBox="0 0 9299 2622" fill="none" xmlns="http://www.w3.org/2000/svg">
<path d="M8999.73 2.33267C8986.4 4.866 8975.87 8.866 8952.27 20.7327C8918.4 37.666 8900 50.9993 8876.4 75.5327C8858.27 94.3327 8843.33 116.066 8830.53 142.199C8812.13 180.066 8809.87 193.133 8811.07 254.999C8812 303.666 8813.33 309.799 8831.6 346.066C8848.53 379.933 8868.93 406.866 8894.13 428.599C8960.67 485.799 9046.27 502.999 9129.6 475.666C9220.93 445.799 9282.93 371.799 9296.8 276.333C9299.87 255.266 9298.8 217.799 9294.67 196.999C9287.07 158.466 9270.93 123.266 9247.33 92.9994C9236.53 79.1327 9211.47 55.1327 9197.73 45.266C9174.4 28.7327 9137.07 9.79935 9116.13 3.93268C9106.8 1.39935 9102.13 1.13266 9058 0.865997C9020.93 0.599335 9007.73 0.865997 8999.73 2.33267ZM9089.6 24.3327C9113.2 25.9327 9125.87 29.3994 9147.87 39.7993C9187.6 58.5993 9220.93 88.466 9244.13 125.666C9253.47 140.733 9264.53 164.466 9268.93 178.733C9272.4 190.066 9272.53 191.399 9273.07 234.199C9273.6 283.933 9272.53 297.533 9266.53 315.533C9261.33 331.133 9250.27 352.333 9238.93 368.333C9227.87 383.933 9198.13 414.066 9182 426.066C9145.33 453.133 9103.87 464.866 9044.67 464.733C9017.33 464.733 9000.8 462.466 8982.67 456.066C8924.67 435.799 8879.2 395.266 8852 339.666C8836 306.999 8834.13 295.799 8834.93 234.066C8835.6 185.799 8836.13 182.599 8847.33 157.666C8867.6 112.333 8895.33 79.266 8934.13 54.1993C8953.47 41.7993 8976 31.5327 8992.8 27.5327C9010.4 23.3994 9054.67 21.9327 9089.6 24.3327Z" fill="white"/>
<path d="M8956 220.599C8956.13 342.866 8956.93 374.999 8960.4 383.399C8962.4 387.933 8962.93 388.333 8967.73 388.333C8975.6 388.333 8977.33 385.533 8978.8 370.066C8979.33 362.866 8979.87 334.466 8980 306.999V256.999L8989.73 257.266C9081.2 260.599 9093.07 262.333 9106.27 274.333C9117.6 284.333 9120.93 295.399 9125.33 336.333C9126.93 350.599 9128.4 363.799 9128.8 365.666C9130.93 375.266 9133.87 381.933 9137.47 384.999C9140.93 387.799 9142.8 388.333 9150.67 388.333C9155.73 388.333 9160.27 387.799 9160.67 386.999C9161.07 386.333 9159.87 382.999 9158 379.799C9153.47 372.066 9150 354.866 9147.33 326.999C9142.93 282.066 9135.33 263.666 9118.4 256.333C9108.27 252.066 9107.73 251.399 9110 247.133C9110.93 245.266 9116.4 239.133 9122 233.666C9134.8 220.999 9141.07 212.599 9143.6 204.599C9146 196.733 9146.13 166.199 9143.87 155.266C9137.47 124.333 9116.4 110.333 9068.8 105.799C9060.8 104.999 9032.13 104.333 9005.07 104.333H8956V220.599ZM9021.33 121.666C9085.87 124.199 9093.47 125.799 9107.33 139.533C9118.8 151.133 9122.8 159.799 9123.73 174.999C9125.33 202.999 9117.2 218.333 9095.47 228.999C9078.8 237.133 9054.8 240.333 9009.2 240.333H8980V180.333V120.333H8982.93C8984.67 120.333 9001.87 120.999 9021.33 121.666Z" fill="white"/>
<path d="M8164 318.599C8038.8 323.133 7913.2 352.466 7805.47 402.199C7731.33 436.466 7669.73 478.599 7617.87 530.333C7571.73 576.466 7537.2 625.799 7504 693C7472.27 757.533 7454.67 815.399 7447.2 881C7444 908.466 7444 960.599 7447.2 987.666C7463.07 1122.73 7525.87 1246.47 7630.8 1349C7682.67 1399.8 7734 1435.4 7803.33 1469.13C7900.67 1516.33 7978.67 1533.53 8180.67 1552.33C8232.53 1557.13 8258.93 1560.47 8290.67 1565.8C8359.07 1577.4 8415.47 1595.4 8472.4 1623.93C8563.47 1669.4 8630.4 1731.67 8683.47 1819.93C8706.93 1858.87 8719.33 1887.13 8725.33 1915.67C8730.67 1940.73 8730.27 2001.8 8724.53 2052.33C8714.13 2142.87 8688.67 2192.47 8615.87 2263.67C8579.2 2299.4 8548.53 2323.4 8506.27 2348.87C8420.67 2400.6 8323.2 2431.4 8221.2 2439.13C8194.4 2441.13 8128.4 2440.07 8104 2437.13C8023.87 2427.67 7956.67 2407.27 7880.67 2369.67C7741.47 2300.6 7662.67 2200.33 7628.8 2049.13C7626.4 2038.07 7621.47 2011.4 7617.87 1989.93L7611.6 1951H7583.33C7510.8 1951 7465.33 1960.2 7453.73 1977.4C7448.53 1985.27 7447.6 1994.33 7448.4 2028.33C7450.8 2121.93 7469.33 2192.87 7510.13 2263.8C7526.53 2292.47 7551.87 2328.6 7574.4 2355.67C7590.27 2374.6 7634.8 2418.2 7655.87 2435.4C7731.87 2497.13 7818.27 2543.4 7921.33 2577.67C8018.13 2609.93 8089.6 2621.53 8189.6 2621.67C8279.73 2621.67 8333.87 2613.27 8424.8 2585.13C8511.2 2558.47 8565.47 2533.53 8628.67 2491.67C8767.87 2399.27 8863.33 2268.33 8896.53 2123.8C8906 2082.6 8908.67 2049.93 8907.6 1989C8906.27 1920.47 8901.6 1888.87 8884.67 1836.33C8816.27 1623.67 8616.93 1454.2 8371.33 1399.8C8334.13 1391.67 8278.8 1385.27 8176 1377.67C8033.47 1367 7984.53 1356.2 7906 1318.33C7763.47 1249.53 7668.53 1142.2 7637.2 1014.33C7629.33 981.933 7627.47 964.866 7627.47 922.999C7627.33 882.466 7628.13 875.666 7635.33 846.733C7642.4 818.733 7661.07 774.199 7678.53 743.666C7713.2 683.133 7758.13 633.799 7809.6 599.933C7861.87 565.533 7937.47 531.533 7998.27 515.133C8050.8 501 8063.73 499.8 8169.33 499.666C8256.4 499.666 8275.73 500.466 8306.67 505.8C8345.87 512.466 8408.93 531.133 8447.87 547.666C8552.27 591.799 8630.27 657.133 8682.67 744.333C8707.2 785 8720.93 826.866 8728.67 884.333C8730.4 898.066 8738.67 977.133 8738.67 981.266C8738.67 982.599 8756.53 982.999 8823.33 982.999H8908V935.266C8908 858.599 8902.4 817.533 8884.67 763.533C8852.8 666.333 8778.67 561.533 8687.33 484.199C8597.87 408.599 8478.67 353.8 8355.07 331.8C8293.07 320.733 8228.27 316.199 8164 318.599Z" fill="white"/>
<path d="M64.3998 390.333C67.1998 397.533 113.066 472.333 526 1143.93L660.666 1363H830.8H1001.07L1127.47 1162.6C1535.47 516.066 1610.67 396.6 1610.67 395C1610.67 394.333 1608.4 393.133 1605.73 392.333C1598.53 390.2 1516.93 388.2 1455.33 388.6L1403.33 389L1332.27 501.666C1101.73 866.866 979.733 1059.93 919.466 1155C882.133 1214.07 847.333 1269.13 842.133 1277.27C836.933 1285.53 832.4 1292.33 832 1292.2C831.6 1292.2 704.8 1089.13 550.267 841L269.066 389.666H218.8C191.066 389.666 144.8 389.266 116 388.733C65.8665 387.933 63.5998 387.933 64.3998 390.333Z" fill="white"/>
<path d="M1852 1499.67V2611H1940.67H2029.33V1499.67V388.333H1940.67H1852V1499.67Z" fill="white"/>
<path d="M6313.33 1503V2611H6850.67H7388V2525V2439H6942.67H6497.33V1417V395H6405.33H6313.33V1503Z" fill="white"/>
<path d="M2302.93 1508.6L2303.33 2610.33L2395.07 2610.73L2486.67 2611V1597.67V584.333H2507.07C2518.13 584.333 2658.13 585.266 2818 586.333L3108.67 588.466L3150 600.466C3213.07 619 3252.27 633.8 3296.13 655.8C3359.47 687.4 3412 725.666 3463.87 777.666C3547.87 861.933 3602.67 955.133 3634.67 1068.33C3680.27 1229.8 3666.53 1392.07 3594.67 1538.33C3563.47 1602.07 3527.6 1652.47 3476.8 1704.07C3415.73 1766.07 3350 1811.13 3265.6 1848.6C3178.27 1887.27 3094.4 1908.47 3007.33 1913.67C2982 1915.13 2965.73 1917.13 2960.13 1919.27C2954.13 1921.4 2949.33 1927.27 2947.07 1935C2945.07 1941.53 2944.93 1951 2945.2 2018.33C2945.33 2060.07 2945.73 2094.47 2946 2094.87C2946.8 2095.67 3020.53 2091.27 3046.67 2088.87C3090.8 2084.87 3140.27 2077.67 3187.33 2068.47C3194.67 2067.13 3201.07 2066.33 3201.47 2066.73C3202 2067.27 3294.67 2188.87 3407.47 2337C3520.13 2485.13 3612.67 2606.6 3612.93 2606.87C3613.33 2607.4 3835.07 2611 3835.6 2610.6C3835.6 2610.47 3734 2474.73 3609.73 2309C3485.47 2143.27 3383.47 2006.87 3383.07 2005.93C3380.93 2000.6 3390.67 1992.47 3423.33 1972.33C3541.2 1899.67 3632.93 1812.07 3703.2 1705.4C3723.07 1675.13 3734.4 1655.27 3752 1619.67C3769.33 1584.6 3780.93 1556.47 3793.33 1519.27C3814.53 1455.8 3823.6 1413.93 3829.47 1353.67C3831.6 1330.6 3832.67 1185.67 3830.8 1154.6C3828.4 1114.2 3822.67 1082.87 3807.87 1028.33C3760.53 855 3669.47 711.266 3536.67 600.333C3433.33 514.066 3303.47 449.266 3179.07 421.8C3117.07 408.066 3119.73 408.2 2673.6 407.4L2302.67 406.733L2302.93 1508.6Z" fill="white"/>
<path d="M5001.73 410.999C4957.73 412.866 4936.53 415.799 4891.47 426.466C4728.27 464.733 4595.07 528.066 4476.53 623.666C4445.73 648.599 4422 670.199 4386.53 705.666C4338.13 754.066 4313.6 782.066 4277.73 830.199C4145.07 1008.07 4066.67 1220.87 4049.07 1451C4046.93 1479.4 4046.93 1567.8 4049.07 1595.67C4061.47 1752.6 4100.13 1890.07 4172.8 2035.27C4227.47 2144.6 4285.2 2224.73 4370.53 2309.67C4540.4 2478.73 4736.8 2582.2 4946.67 2612.87C5011.47 2622.33 5158.4 2621.67 5236.67 2611.53C5278.13 2606.2 5350.27 2589.67 5404.67 2572.87C5527.07 2535.13 5642 2473.8 5746 2390.33C5872.27 2289 5968.93 2161.27 6043.33 1997C6070.67 1936.73 6085.2 1891.53 6085.33 1867.27C6085.33 1848.87 6082 1844.47 6060.93 1835.27C6048 1829.53 5980.53 1804.6 5953.47 1795.67C5939.07 1790.87 5938.13 1790.73 5936.53 1793C5934.13 1796.33 5922.27 1824.87 5908.53 1860.33C5866.93 1968.2 5817.2 2053.93 5747.87 2137C5728.13 2160.6 5684.8 2205.4 5662 2225.67C5581.2 2297.8 5490.27 2355.67 5402 2391.27C5356.27 2409.67 5291.07 2428.47 5254.53 2433.67C5212.93 2439.67 5157.47 2442.2 5092 2441.27C5006.93 2439.93 4970.93 2435.93 4915.33 2421.67C4783.6 2387.8 4664.8 2327.4 4562 2241.8C4526.8 2212.47 4470.67 2154.87 4439.2 2115.67C4337.87 1989.67 4270.4 1838.6 4242.8 1675.67C4228.8 1592.73 4225.6 1498.2 4234.13 1413.67C4260.4 1151 4389.33 914.199 4591.87 756.732C4651.47 710.466 4728.93 666.999 4808 635.666C4926.93 588.466 5088.93 573.399 5237.33 595.799C5358 613.932 5464.4 655.132 5562 721.399C5607.47 752.199 5641.2 780.199 5683.07 821.532C5773.33 910.599 5842.4 1012.87 5901.33 1144.6C5908.53 1160.47 5916.53 1176.6 5919.33 1180.2C5937.2 1204.6 5962.4 1208.73 6004.27 1194.2C6014.8 1190.47 6067.33 1167 6080.13 1160.2C6082.13 1159.27 6082 1157.53 6079.73 1140.47C6076.67 1117.27 6070.67 1096.33 6058.13 1064.47C5988.93 890.599 5853.87 719.266 5691.47 598.999C5604.27 534.466 5509.6 484.866 5414.67 453.932C5337.47 428.732 5281.87 417.666 5206.67 412.333C5180.67 410.466 5036 409.532 5001.73 410.999Z" fill="white"/>
<path d="M641.066 1590.6C640 1591.93 590.933 1669.13 532 1762.33C473.066 1855.4 392.8 1982.33 353.6 2044.33C53.3331 2518.87 -0.40027 2604.47 0.933063 2605.8C3.59973 2608.47 44.2664 2609.67 124.666 2609.53H210L356.666 2378.07C625.466 1953.53 743.333 1769.27 803.066 1679.67C826.8 1644.07 829.466 1640.33 830.666 1640.33C831.2 1640.33 833.466 1643.13 835.6 1646.6C914 1771 989.333 1892.33 1268.4 2344.33C1354.13 2483.27 1426.4 2600.2 1428.8 2603.93L1433.33 2611H1535.33C1602.13 2611 1637.33 2610.6 1637.33 2609.67C1637.33 2609 1631.6 2598.87 1624.53 2587.4C1606.27 2557.53 1252 1980.73 1121.07 1767.67L1011.33 1589L827.2 1588.6C653.066 1588.33 642.933 1588.47 641.066 1590.6Z" fill="white"/>
</svg>
