<svg width="450" height="450" viewBox="0 0 450 450" fill="none" xmlns="http://www.w3.org/2000/svg">
    <g clip-path="url(#clip0_1_19)">
        <path d="M214.464 0.0325455C195.89 0.837446 177.59 3.89886 159.854 9.17026C139.982 15.0791 120.975 23.7283 103.48 34.8201C92.2281 41.9525 81.3991 50.2574 71.7097 59.1765L70.9283 59.9023L76.4777 65.4249C79.5338 68.4631 82.041 70.9476 82.055 70.9522C82.0689 70.9522 82.3806 70.6731 82.7527 70.3334C100.471 54.1563 120.557 41.2732 142.573 31.9634C164.501 22.6907 187.973 17.2146 211.743 15.8235C212.599 15.7723 213.603 15.7165 213.976 15.7025C214.348 15.6886 214.738 15.6653 214.85 15.6513L215.045 15.6281V7.8117V-2.27559e-05L214.92 0.00928245C214.845 0.0139351 214.645 0.0232403 214.464 0.0325455Z" fill="#CB242E" />
        <path d="M233.513 7.8117V15.6327L233.62 15.6513C233.675 15.6606 234.266 15.6932 234.931 15.7258C235.596 15.7537 236.801 15.8188 237.606 15.87C269.428 17.8706 300.319 27.0874 328.011 42.8412C341.593 50.5645 354.172 59.7208 365.801 70.3381C366.168 70.6777 366.484 70.9522 366.498 70.9522C366.512 70.9476 369.024 68.4631 372.08 65.4249L377.634 59.9023L376.848 59.1765C370.773 53.584 364 48.0288 357.27 43.125C344.575 33.8663 331.23 26.1057 316.893 19.6479C303.39 13.5623 289.104 8.77014 274.587 5.46214C261.864 2.56356 248.616 0.735089 235.885 0.120945C235.08 0.0790715 234.215 0.0371981 233.968 0.0185877L233.513 -0.00932797V7.8117Z" fill="#D00183" />
        <path d="M385.203 77.2193C382.505 79.9271 380.016 82.4256 379.672 82.7745L379.049 83.4119L379.997 84.4541C391.259 96.8114 401.069 110.602 409.098 125.364C411.559 129.887 414.052 134.921 416.145 139.578C425.937 161.39 431.914 184.62 433.854 208.437C434.036 210.67 434.236 213.783 434.301 215.369C434.315 215.741 434.338 216.132 434.352 216.239L434.375 216.439H442.19H450.005L449.977 216.007C449.963 215.774 449.921 214.918 449.879 214.113C449.158 199.011 446.744 183.336 442.85 168.448C440.99 161.311 438.576 153.68 436.008 146.79C431.975 135.968 427.212 125.662 421.555 115.524C414.15 102.25 405.214 89.5022 395.232 77.9777C393.45 75.9213 390.24 72.3481 390.143 72.3108C390.124 72.3062 387.901 74.5162 385.203 77.2193Z" fill="#70336E" />
        <path d="M376.774 179.335C376.309 179.423 375.941 179.563 375.118 179.977C373.936 180.568 373.294 181.033 372.471 181.889C371.838 182.545 371.317 183.303 370.871 184.215C370.229 185.537 370.15 185.993 370.192 188.151C370.224 189.85 370.271 190.064 370.908 191.329C371.499 192.511 372.211 193.451 373.09 194.209C375.411 196.205 378.397 196.805 381.305 195.851C384.491 194.809 386.654 192.227 387.138 188.896C387.245 188.161 387.207 186.853 387.063 186.127C386.798 184.783 386.235 183.555 385.412 182.498C385.035 182.015 384.161 181.177 383.682 180.833C382.868 180.256 381.565 179.595 380.835 179.39C380.509 179.302 380.346 179.293 378.807 179.283C377.513 179.274 377.053 179.283 376.774 179.335ZM379.909 180.102C380.732 180.158 381.174 180.279 381.942 180.642C383.328 181.298 384.491 182.34 385.3 183.638C385.626 184.164 386.012 184.992 386.166 185.49C386.286 185.886 386.291 185.932 386.31 187.426C386.328 189.161 386.291 189.636 386.082 190.264C385.9 190.808 385.514 191.548 385.119 192.106C384.733 192.65 383.696 193.702 383.133 194.121C381.853 195.065 380.407 195.475 378.341 195.47C377.388 195.47 376.811 195.391 376.178 195.167C374.155 194.46 372.569 193.046 371.62 191.106C371.062 189.966 370.997 189.575 371.024 187.421C371.048 185.737 371.066 185.625 371.457 184.755C372.164 183.173 373.132 182.019 374.485 181.145C375.16 180.712 375.946 180.354 376.532 180.214C377.146 180.07 378.69 180.019 379.909 180.102Z" fill="white" />
        <path d="M375.248 186.951C375.253 191.217 375.281 192.339 375.402 192.632C375.471 192.79 375.49 192.804 375.657 192.804C375.932 192.804 375.992 192.706 376.044 192.167C376.062 191.915 376.081 190.924 376.085 189.966V188.221L376.425 188.23C379.616 188.347 380.03 188.407 380.491 188.826C380.886 189.175 381.002 189.561 381.156 190.989C381.212 191.487 381.263 191.948 381.277 192.013C381.351 192.348 381.453 192.581 381.579 192.688C381.7 192.785 381.765 192.804 382.04 192.804C382.216 192.804 382.374 192.785 382.388 192.757C382.402 192.734 382.361 192.618 382.295 192.506C382.137 192.236 382.016 191.636 381.923 190.664C381.77 189.096 381.505 188.454 380.914 188.198C380.56 188.049 380.542 188.026 380.621 187.877C380.653 187.812 380.844 187.598 381.039 187.407C381.486 186.965 381.705 186.672 381.793 186.393C381.877 186.118 381.881 185.053 381.802 184.671C381.579 183.592 380.844 183.103 379.183 182.945C378.904 182.917 377.904 182.894 376.96 182.894H375.248V186.951ZM377.527 183.499C379.779 183.587 380.044 183.643 380.528 184.122C380.928 184.527 381.067 184.829 381.1 185.36C381.156 186.337 380.872 186.872 380.114 187.244C379.532 187.528 378.695 187.64 377.104 187.64H376.085V185.546V183.452H376.188C376.248 183.452 376.848 183.476 377.527 183.499Z" fill="white" />
        <path d="M347.617 190.371C343.249 190.529 338.868 191.552 335.109 193.288C332.523 194.484 330.374 195.954 328.564 197.759C326.955 199.369 325.75 201.09 324.592 203.435C323.485 205.687 322.871 207.706 322.61 209.995C322.498 210.954 322.498 212.773 322.61 213.717C323.164 218.431 325.355 222.748 329.015 226.326C330.825 228.099 332.616 229.341 335.035 230.518C338.43 232.165 341.152 232.765 348.199 233.421C350.008 233.589 350.929 233.705 352.036 233.891C354.423 234.296 356.39 234.924 358.377 235.92C361.554 237.506 363.889 239.679 365.74 242.759C366.559 244.118 366.991 245.104 367.201 246.1C367.387 246.974 367.373 249.105 367.173 250.869C366.81 254.028 365.922 255.758 363.382 258.243C362.103 259.49 361.033 260.327 359.558 261.216C356.572 263.021 353.171 264.096 349.613 264.366C348.678 264.436 346.375 264.398 345.524 264.296C342.728 263.966 340.384 263.254 337.733 261.942C332.876 259.532 330.127 256.033 328.946 250.757C328.862 250.371 328.69 249.44 328.564 248.691L328.346 247.333H327.359C324.829 247.333 323.243 247.654 322.838 248.254C322.657 248.528 322.624 248.845 322.652 250.031C322.736 253.297 323.382 255.772 324.806 258.248C325.378 259.248 326.262 260.509 327.048 261.453C327.601 262.114 329.155 263.635 329.89 264.235C332.541 266.39 335.556 268.004 339.151 269.2C342.528 270.326 345.022 270.731 348.51 270.735C351.655 270.735 353.544 270.442 356.716 269.46C359.73 268.53 361.623 267.66 363.828 266.199C368.685 262.975 372.015 258.406 373.173 253.362C373.504 251.925 373.597 250.785 373.56 248.659C373.513 246.267 373.35 245.164 372.759 243.331C370.373 235.91 363.419 229.997 354.851 228.099C353.553 227.815 351.622 227.592 348.036 227.326C343.063 226.954 341.356 226.577 338.616 225.256C333.644 222.855 330.332 219.11 329.239 214.648C328.964 213.517 328.899 212.922 328.899 211.461C328.894 210.047 328.922 209.809 329.174 208.8C329.42 207.823 330.071 206.269 330.681 205.203C331.89 203.091 333.458 201.369 335.253 200.188C337.077 198.987 339.714 197.801 341.835 197.229C343.668 196.735 344.119 196.694 347.803 196.689C350.841 196.689 351.515 196.717 352.595 196.903C353.962 197.136 356.162 197.787 357.521 198.364C361.163 199.904 363.884 202.184 365.712 205.226C366.568 206.646 367.047 208.106 367.317 210.112C367.378 210.591 367.666 213.35 367.666 213.494C367.666 213.541 368.289 213.555 370.62 213.555H373.574V211.889C373.574 209.214 373.378 207.781 372.759 205.896C371.648 202.505 369.061 198.848 365.875 196.149C362.754 193.511 358.595 191.599 354.283 190.831C352.12 190.445 349.859 190.287 347.617 190.371Z" fill="white" />
        <path d="M65.0439 192.874C65.1416 193.125 66.7418 195.735 81.1479 219.17L85.8461 226.815H91.7816H97.7217L102.131 219.822C116.365 197.261 118.989 193.093 118.989 193.037C118.989 193.013 118.91 192.972 118.817 192.944C118.566 192.869 115.719 192.799 113.57 192.813L111.756 192.827L109.276 196.759C101.234 209.502 96.9774 216.239 94.8749 219.557C93.5724 221.618 92.3584 223.539 92.177 223.823C91.9955 224.111 91.8374 224.349 91.8234 224.344C91.8095 224.344 87.3858 217.258 81.9945 208.6L72.1842 192.851H70.4305C69.463 192.851 67.8489 192.837 66.8441 192.818C65.0951 192.79 65.016 192.79 65.0439 192.874Z" fill="white" />
        <path d="M127.409 231.583V270.363H130.502H133.595V231.583V192.804H130.502H127.409V231.583Z" fill="white" />
        <path d="M283.053 231.7V270.363H301.799H320.545V267.362V264.361H305.008H289.472V228.699V193.037H286.262H283.053V231.7Z" fill="white" />
        <path d="M143.14 231.895L143.154 270.34L146.355 270.354L149.55 270.363V235.003V199.643H150.262C150.648 199.643 155.532 199.676 161.11 199.713L171.25 199.788L172.692 200.206C174.892 200.853 176.26 201.369 177.79 202.137C180 203.24 181.833 204.575 183.642 206.39C186.573 209.33 188.485 212.582 189.601 216.532C191.192 222.167 190.713 227.829 188.206 232.933C187.117 235.157 185.866 236.915 184.093 238.716C181.963 240.879 179.67 242.452 176.725 243.759C173.678 245.109 170.753 245.848 167.715 246.03C166.831 246.081 166.264 246.151 166.068 246.225C165.859 246.3 165.692 246.504 165.612 246.774C165.543 247.002 165.538 247.333 165.547 249.682C165.552 251.138 165.566 252.339 165.575 252.353C165.603 252.381 168.176 252.227 169.087 252.143C170.627 252.004 172.353 251.753 173.995 251.432C174.251 251.385 174.474 251.357 174.488 251.371C174.506 251.39 177.739 255.633 181.675 260.802C185.605 265.971 188.833 270.209 188.843 270.219C188.857 270.237 196.592 270.363 196.611 270.349C196.611 270.344 193.066 265.608 188.731 259.825C184.396 254.042 180.837 249.282 180.823 249.249C180.749 249.063 181.088 248.78 182.228 248.077C186.34 245.541 189.541 242.485 191.992 238.762C192.685 237.706 193.08 237.013 193.694 235.771C194.299 234.547 194.704 233.566 195.136 232.267C195.876 230.053 196.192 228.592 196.397 226.489C196.471 225.684 196.509 220.627 196.444 219.543C196.36 218.133 196.16 217.039 195.643 215.137C193.992 209.088 190.815 204.073 186.182 200.202C182.577 197.191 178.046 194.93 173.706 193.972C171.543 193.493 171.636 193.497 156.072 193.469L143.131 193.446L143.14 231.895Z" fill="white" />
        <path d="M237.294 193.595C235.759 193.66 235.02 193.762 233.447 194.135C227.754 195.47 223.107 197.68 218.971 201.016C217.897 201.886 217.069 202.64 215.832 203.877C214.143 205.566 213.287 206.543 212.036 208.223C207.407 214.429 204.672 221.855 204.058 229.885C203.984 230.876 203.984 233.961 204.058 234.933C204.491 240.409 205.84 245.206 208.375 250.273C210.282 254.088 212.296 256.884 215.273 259.848C221.2 265.748 228.051 269.358 235.373 270.428C237.634 270.758 242.76 270.735 245.49 270.382C246.937 270.195 249.454 269.619 251.352 269.032C255.622 267.716 259.631 265.575 263.26 262.663C267.665 259.127 271.037 254.67 273.633 248.938C274.587 246.835 275.094 245.257 275.098 244.411C275.098 243.769 274.982 243.615 274.247 243.294C273.796 243.094 271.442 242.224 270.498 241.912C269.995 241.745 269.963 241.74 269.907 241.819C269.823 241.936 269.409 242.931 268.93 244.169C267.479 247.933 265.744 250.924 263.325 253.823C262.636 254.646 261.125 256.21 260.329 256.917C257.51 259.434 254.338 261.453 251.259 262.695C249.663 263.338 247.388 263.994 246.114 264.175C244.662 264.384 242.727 264.473 240.443 264.44C237.476 264.394 236.22 264.254 234.28 263.756C229.684 262.574 225.54 260.467 221.953 257.48C220.725 256.456 218.767 254.446 217.669 253.079C214.134 248.682 211.78 243.41 210.817 237.725C210.329 234.831 210.217 231.532 210.515 228.583C211.431 219.417 215.929 211.154 222.995 205.659C225.074 204.045 227.777 202.528 230.535 201.435C234.685 199.788 240.336 199.262 245.514 200.043C249.723 200.676 253.435 202.114 256.84 204.426C258.427 205.501 259.604 206.478 261.064 207.92C264.213 211.028 266.623 214.597 268.679 219.194C268.93 219.747 269.209 220.31 269.307 220.436C269.93 221.287 270.809 221.431 272.27 220.924C272.637 220.794 274.47 219.975 274.917 219.738C274.987 219.705 274.982 219.645 274.903 219.049C274.796 218.24 274.587 217.509 274.149 216.397C271.735 210.33 267.023 204.352 261.357 200.155C258.315 197.903 255.012 196.173 251.7 195.093C249.007 194.214 247.067 193.828 244.444 193.641C243.537 193.576 238.49 193.544 237.294 193.595Z" fill="white" />
        <path d="M433.626 233.435C433.626 233.854 433.398 237.744 433.277 239.446C430.938 271.731 421.155 303.006 404.679 330.893C397.381 343.251 388.515 355.231 379.025 365.569L378.309 366.351L383.854 371.906L389.403 377.461L389.715 377.126C392.301 374.339 395.776 370.343 398.441 367.091C410.005 352.975 419.881 337.384 427.658 320.983C439.739 295.51 446.883 268.302 448.884 240.191C449.028 238.125 449.256 234.063 449.256 233.477V233.328H441.441H433.626V233.435Z" fill="#23538E" />
        <path d="M85.1623 234.757C85.125 234.803 83.4132 237.497 81.3572 240.749C79.3012 243.997 76.5009 248.426 75.1333 250.589C64.6578 267.148 62.7832 270.135 62.8297 270.182C62.9228 270.275 64.3415 270.316 67.1464 270.312H70.1235L75.2403 262.235C84.618 247.421 88.7301 240.991 90.814 237.865C91.642 236.622 91.735 236.492 91.7769 236.492C91.7955 236.492 91.8746 236.59 91.949 236.711C94.6842 241.052 97.3124 245.285 107.048 261.058C110.039 265.906 112.56 269.986 112.644 270.116L112.802 270.363H116.361C118.691 270.363 119.919 270.349 119.919 270.316C119.919 270.293 119.719 269.94 119.473 269.539C118.836 268.497 106.476 248.37 101.908 240.935L98.0799 234.701L91.656 234.687C85.5809 234.677 85.2274 234.682 85.1623 234.757Z" fill="white" />
        <path d="M77.9615 384.426C74.9193 387.464 72.4261 389.963 72.4261 389.977C72.4261 390.014 73.3843 390.893 74.9845 392.336C86.8229 402.99 99.9359 412.463 113.826 420.396C120.868 424.42 128.474 428.226 135.828 431.413C154.835 439.648 174.665 445.189 195.136 447.976C201.411 448.832 208.101 449.451 214.162 449.74C214.966 449.781 215.822 449.823 216.06 449.837L216.487 449.861V442.044C216.487 434.633 216.483 434.228 216.408 434.228C216.236 434.228 213.627 434.088 212.534 434.018C188.959 432.562 165.687 427.086 143.945 417.883C123.348 409.164 104.308 397.235 87.5206 382.514C86.5066 381.625 84.5948 379.913 83.8133 379.192L83.5016 378.904L77.9615 384.426Z" fill="#2C7F9D" />
        <path d="M10.1831 234.819C5.8837 234.816 2.35401 234.82 2.34414 234.83C2.31782 234.856 2.37361 236.156 2.48524 238.307C3.32243 254.212 5.89649 270.182 10.1088 285.613C12.2429 293.439 14.9296 301.508 17.8763 308.962C25.4929 328.224 35.5965 346.165 48.1017 362.611C51.9335 367.653 56.2258 372.821 60.3077 377.311C60.8471 377.909 61.4227 378.544 61.5806 378.722L61.8668 379.041L67.3938 373.514C72.6346 368.273 72.9175 367.984 72.8649 367.931C72.7432 367.809 70.9966 365.865 70.273 365.043C54.633 347.344 42.0493 327.015 33.183 305.134C24.7836 284.404 19.7561 262.506 18.2946 240.226C18.2059 238.881 18.0647 236.318 18.0221 235.256L18.0057 234.832L10.1831 234.819Z" fill="#309993" />
        <path d="M66.4342 76.5355C63.3961 73.4933 60.8976 71 60.8837 71C60.8464 71 59.9671 71.9582 58.5248 73.5584C47.8703 85.3968 38.3976 98.5098 30.4649 112.4C26.4404 119.442 22.6346 127.048 19.4476 134.402C11.2125 153.408 5.67121 173.238 2.8843 193.71C2.02823 199.985 1.40943 206.674 1.12097 212.736C1.07909 213.54 1.03722 214.396 1.02326 214.633L1 215.061H8.81637C16.228 215.061 16.6327 215.057 16.6327 214.982C16.6327 214.81 16.7723 212.201 16.8421 211.107C18.2984 187.533 23.7745 164.261 32.9773 142.519C41.6963 121.922 53.6256 102.882 68.3464 86.0946C69.2351 85.0805 70.9472 83.1687 71.6684 82.3872L71.9569 82.0756L66.4342 76.5355Z" fill="#91BC2E" />
        <path d="M364.498 379.709C347.966 394.797 329.401 407.005 309.102 416.138C299.487 420.465 289.267 424.155 279.192 426.937C275.08 428.077 271.586 428.938 267.47 429.831C256.538 432.204 244.49 433.795 233.652 434.298C233.331 434.311 232.889 434.335 232.666 434.349L232.257 434.377V442.165V449.954H232.596C233.475 449.954 237.746 449.702 240.56 449.484C262.943 447.758 284.955 442.691 305.822 434.46C331.806 424.211 355.469 409.346 376.067 390.33L376.318 390.098L370.769 384.575L365.214 379.057L364.498 379.709Z" fill="#4185D2" />
    </g>
    <defs>
        <clipPath id="clip0_1_19">
            <rect width="450" height="450" fill="white" />
        </clipPath>
    </defs>
</svg>
